<svg xmlns="http://www.w3.org/2000/svg" width="32" height="32" viewBox="0 0 8.467 8.467" id="pray">
  <g transform="translate(0 -288.533)">
    <path fill-rule="evenodd"
      d="m 4.7460195,294.45238 c 0.012568,0.0517 0.029393,0.10284 0.050723,0.15215 l 0.5519737,1.14133 0.2169531,0.74098 1.2701322,-0.33959 c 0,0 -0.1595755,-1.05666 -0.1710293,-1.58952 -0.013679,-0.63605 0.2585641,-1.30054 0.1225312,-1.90532 -0.1237483,-0.55019 -0.432726,-1.06908 -0.7106338,-1.40275 0,0 -0.9633849,-1.15084 -1.4505834,-1.72172 -0.078658,-0.0922 -0.2816331,-0.15954 -0.4326493,-0.0289 -0.1025313,0.0886 -0.129704,0.27751 -0.037441,0.4023 0.2181119,0.29503 1.0769521,1.51093 1.0769521,1.51093 l 0.053541,0.18893 a 0.19772782,0.19918956 74.33242 0 1 0.017568,-0.004 c 0.1310217,-0.0241 0.2777067,0.004 0.3869161,0.0917 0.1092861,0.0876 0.1750774,0.21938 0.2053246,0.37231 a 0.19772782,0.19918956 74.33242 0 1 0.00238,0.0202 l 0.1354429,1.46264 a 0.19772782,0.19918956 74.33242 0 1 -0.2167096,0.21857 l 0.018494,-0.20002 -0.1354428,-1.46263 c -0.04803,-0.24276 -0.191053,-0.33949 -0.3612356,-0.3082 -0.1618351,0.0487 -0.2904014,0.1249 -0.3110945,0.36044 l -0.098774,1.11937 -0.1796071,0.70676 c -0.039759,0.15647 -0.041384,0.3194 -0.00378,0.47444 z"></path>
    <path fill-rule="evenodd"
      d="M4.0264084 290.52426c.00995.0353.026561.0694.050131.10026l.8903123 1.16504c.0077-.009.014182-.019.02241-.0272.038047-.0377.079288-.0654.1211025-.0887l-.057253-.16964c-.021537-.0305-.6214454-.87685-.9212765-1.29268-.0055.004-.012224.006-.017515.0103l.0001428.00053c-.087013.0782-.1179142.19616-.088064.30217zM3.9445516 291.22937c.010134.0352.02744.0691.051977.0992l.8153718.99929.016986-.19207c.00489-.0556.017806-.1073.033909-.15656l-.8122973-1.06295c-.00511.004-.011748.005-.016642.01l.0001429.00053c-.087016.0783-.1198086.1975-.089416.30309zM4.0126898 292.05021c.010133.0352.027495.0687.052321.0986l.6897793.82895.032224-.36541-.6945629-.85176c-.077563.0782-.1088073.18947-.079772.28965z"></path>
    <path
      d="M.6584002 289.31106a.13230489.13230489 0 0 0-.13022527.13384v.12868a.13230489.13230489 0 1 0 .26458333 0V289.4449A.13230489.13230489 0 0 0 .6584002 289.31106zM.6584002 289.97252a.13230489.13230489 0 0 0-.13022527.13384v.12868a.13230489.13230489 0 1 0 .26458333 0v-.12868A.13230489.13230489 0 0 0 .6584002 289.97252zM.92711632 289.70794a.13230489.13230489 0 1 0 0 .26458H1.0557911a.13230489.13230489 0 1 0 0-.26458zM.265658 289.70794a.13230489.13230489 0 1 0 0 .26458h.12867481a.13230489.13230489 0 1 0 0-.26458zM7.8042165 291.0324a.13230489.13230489 0 0 0-.1302253.13436v.12868a.13230489.13230489 0 1 0 .2645834 0v-.12868A.13230489.13230489 0 0 0 7.8042165 291.0324zM7.8042165 291.69386a.13230489.13230489 0 0 0-.1302253.13436v.12867a.13230489.13230489 0 1 0 .2645834 0v-.12867a.13230489.13230489 0 0 0-.1343581-.13436zM8.0724167 291.42928a.13230489.13230489 0 1 0 0 .26458h.1286748a.13230489.13230489 0 1 0 0-.26458zM7.4109584 291.42928a.13230489.13230489 0 1 0 0 .26458h.1286748a.13230489.13230489 0 1 0 0-.26458z"
      color="#000" font-family="sans-serif" font-weight="400" overflow="visible"
      style="line-height:normal;font-variant-ligatures:normal;font-variant-position:normal;font-variant-caps:normal;font-variant-numeric:normal;font-variant-alternates:normal;font-feature-settings:normal;text-indent:0;text-align:start;text-decoration-line:none;text-decoration-style:solid;text-decoration-color:#000;text-transform:none;text-orientation:mixed;shape-padding:0;isolation:auto;mix-blend-mode:normal"></path>
    <path
      d="M.39598116 290.7679A.13229166.13229166 0 0 1 .2636895 290.90019.13229166.13229166 0 0 1 .13139783 290.7679.13229166.13229166 0 0 1 .2636895 290.63561.13229166.13229166 0 0 1 .39598116 290.7679zM8.0688977 293.01686a.13229166.13229166 0 0 1-.1322916.13229.13229166.13229166 0 0 1-.1322917-.13229.13229166.13229166 0 0 1 .1322917-.13229.13229166.13229166 0 0 1 .1322916.13229z"></path>
    <path
      d="M6.8761085 289.04648a.13230489.13230489 0 0 0-.1302253.13384v.12867a.13230489.13230489 0 1 0 .2645833 0v-.12867a.13230489.13230489 0 0 0-.134358-.13384zM6.8761085 289.70794a.13230489.13230489 0 0 0-.1302253.13384v.12867a.13230489.13230489 0 1 0 .2645833 0v-.12867a.13230489.13230489 0 0 0-.134358-.13384zM7.1448246 289.44335a.13230489.13230489 0 1 0 0 .26459h.1286748a.13230489.13230489 0 1 0 0-.26459zM6.4833663 289.44335a.13230489.13230489 0 1 0 0 .26459h.1286748a.13230489.13230489 0 1 0 0-.26459z"
      color="#000" font-family="sans-serif" font-weight="400" overflow="visible"
      style="line-height:normal;font-variant-ligatures:normal;font-variant-position:normal;font-variant-caps:normal;font-variant-numeric:normal;font-variant-alternates:normal;font-feature-settings:normal;text-indent:0;text-align:start;text-decoration-line:none;text-decoration-style:solid;text-decoration-color:#000;text-transform:none;text-orientation:mixed;shape-padding:0;isolation:auto;mix-blend-mode:normal"></path>
    <path
      d="M7.5397311 290.50332a.13229166.13229166 0 0 1-.1322917.13229.13229166.13229166 0 0 1-.1322917-.13229.13229166.13229166 0 0 1 .1322917-.1323.13229166.13229166 0 0 1 .1322917.1323zM3.8185438 293.083a.13229166.13229166 0 0 1-.1322917.1323.13229166.13229166 0 0 1-.1322916-.1323.13229166.13229166 0 0 1 .1322916-.13229.13229166.13229166 0 0 1 .1322917.13229zM4.3298326 293.74265a.13229166.13229166 0 0 1-.1322917.1323.13229166.13229166 0 0 1-.1322917-.1323.13229166.13229166 0 0 1 .1322917-.13229.13229166.13229166 0 0 1 .1322917.13229zM.79103053 291.55983a.13229166.13229166 0 0 1-.13229166.13229.13229166.13229166 0 0 1-.13229167-.13229.13229166.13229166 0 0 1 .13229167-.1323.13229166.13229166 0 0 1 .13229166.1323z"></path>
    <path fill-rule="evenodd"
      d="m 2.9902948,294.45238 c -0.012568,0.0517 -0.029395,0.10284 -0.050726,0.15215 l -0.5519738,1.14133 -0.216953,0.74098 -1.27013228,-0.33959 c 0,0 0.15957548,-1.05666 0.17102928,-1.58951 0.013679,-0.63606 -0.25856403,-1.30055 -0.12253115,-1.90533 0.12374825,-0.55019 0.43272605,-1.06908 0.71063375,-1.40275 0,0 0.963385,-1.15084 1.4505861,-1.72172 0.078655,-0.0922 0.2816304,-0.15954 0.4326466,-0.0289 0.102534,0.0886 0.1297067,0.27751 0.037441,0.4023 -0.2181119,0.29503 -1.076952,1.51093 -1.076952,1.51093 l -0.053541,0.18893 a 0.19918956,0.19772782 15.66758 0 0 -0.017568,-0.004 c -0.1310217,-0.0241 -0.2777067,0.004 -0.3869161,0.0917 -0.1092862,0.0876 -0.1750775,0.21939 -0.2053246,0.37231 a 0.19918956,0.19772782 15.66758 0 0 -0.00238,0.0202 l -0.1354455,1.46264 a 0.19918956,0.19772782 15.66758 0 0 0.2167097,0.21857 l -0.018494,-0.20002 0.1354428,-1.46263 c 0.04803,-0.24276 0.191053,-0.33949 0.3612357,-0.3082 0.161835,0.0487 0.2904013,0.1249 0.3110944,0.36044 l 0.098774,1.11937 0.1796071,0.70676 c 0.039762,0.15647 0.041384,0.3194 0.00378,0.47444 z"></path>
    <path fill-rule="evenodd"
      d="M3.7099032 290.52426c-.00995.0353-.026561.0694-.050131.10026l-.8903123 1.16504c-.0077-.009-.014182-.019-.02241-.0272-.038047-.0377-.079288-.0654-.1211024-.0887l.057253-.16964c.021537-.0305.6214454-.87685.9212765-1.29268.0055.004.012224.006.017515.0103l-.0001429.00053c.087013.0782.1179142.19616.088067.30217zM3.79176 291.22937c-.010134.0352-.02744.0691-.051977.0992l-.8153717.99928-.016986-.19207c-.00489-.0556-.017806-.1073-.033909-.15656l.8122972-1.06295c.00513.004.011747.005.016642.01l-.0001428.00053c.087016.0783.1198112.1975.089416.30309zM3.7236219 292.05021c-.010133.0352-.027496.0687-.052321.0986l-.6897793.82895-.032224-.36541.694563-.85176c.077563.0782.1088072.18947.079772.28965z"></path>
  </g>
</svg>